<svg xmlns="http://www.w3.org/2000/svg" xmlns:xlink="http://www.w3.org/1999/xlink" width="58" zoomAndPan="magnify" viewBox="0 0 43.5 31.5" height="42" preserveAspectRatio="xMidYMid meet" version="1.0"><defs><clipPath id="8513f1cd5f"><path d="M 5.554688 2.046875 L 37.300781 2.046875 L 37.300781 28.625 L 5.554688 28.625 Z M 5.554688 2.046875 " clip-rule="nonzero"/></clipPath></defs><g clip-path="url(#8513f1cd5f)"><path fill="#0097b2" d="M 13.671875 11.054688 C 15.542969 10.3125 17.484375 10.464844 18.882812 10.578125 C 21.21875 10.761719 23.429688 11.449219 25.488281 10.71875 C 25.988281 10.539062 26.324219 10.332031 26.511719 10.207031 C 27.515625 9.523438 27.96875 8.582031 28.367188 7.71875 C 28.621094 7.171875 28.941406 6.339844 29.117188 5.265625 L 31.34375 5.746094 C 31.289062 6.105469 30.464844 11.246094 26.273438 12.910156 C 24.910156 13.449219 23.625 13.449219 22.71875 13.347656 C 22.605469 14.46875 21.804688 21.433594 15.675781 25.820312 C 11.523438 28.789062 7.191406 28.960938 5.570312 28.945312 L 5.570312 26.691406 C 8.332031 26.714844 12.449219 26.109375 16.222656 22.363281 C 19.992188 18.613281 20.457031 13.097656 20.457031 13.097656 C 18.109375 12.789062 16.554688 12.398438 14.46875 13.214844 C 12.382812 14.03125 11.316406 16.296875 11.316406 16.296875 L 9.304688 15.242188 C 9.980469 13.984375 11.320312 11.988281 13.671875 11.054688 Z M 22.996094 18.738281 C 24.144531 18.667969 27.011719 18.648438 30.027344 20.359375 C 33.417969 22.285156 34.882812 25.207031 35.335938 26.222656 L 37.429688 25.292969 C 36.867188 24.058594 35.160156 20.734375 31.289062 18.484375 C 28.007812 16.574219 24.878906 16.429688 23.488281 16.449219 C 23.324219 17.210938 23.160156 17.972656 22.996094 18.738281 Z M 22.765625 9.246094 C 20.84375 9.242188 19.160156 7.652344 19.160156 5.648438 C 19.15625 3.644531 20.839844 2.046875 22.777344 2.046875 C 24.613281 2.046875 26.183594 3.484375 26.367188 5.265625 C 26.578125 7.324219 24.878906 9.25 22.765625 9.246094 Z M 24.09375 5.507812 C 24.023438 4.855469 23.453125 4.320312 22.777344 4.320312 C 22.0625 4.320312 21.449219 4.914062 21.449219 5.648438 C 21.445312 6.386719 22.0625 6.984375 22.777344 6.980469 C 23.558594 6.976562 24.171875 6.261719 24.09375 5.507812 Z M 24.09375 5.507812 " fill-opacity="1" fill-rule="nonzero"/><path fill="#0097b2" d="M 13.671875 11.054688 C 15.542969 10.3125 17.484375 10.464844 18.882812 10.578125 C 21.21875 10.761719 23.429688 11.449219 25.488281 10.71875 C 25.988281 10.539062 26.324219 10.332031 26.511719 10.207031 C 27.515625 9.523438 27.96875 8.582031 28.367188 7.71875 C 28.621094 7.171875 28.941406 6.339844 29.117188 5.265625 L 31.34375 5.746094 C 31.289062 6.105469 30.464844 11.246094 26.273438 12.910156 C 24.910156 13.449219 23.625 13.449219 22.71875 13.347656 C 22.605469 14.46875 21.804688 21.433594 15.675781 25.820312 C 11.523438 28.789062 7.191406 28.960938 5.570312 28.945312 L 5.570312 26.691406 C 8.332031 26.714844 12.449219 26.109375 16.222656 22.363281 C 19.992188 18.613281 20.457031 13.097656 20.457031 13.097656 C 18.109375 12.789062 16.554688 12.398438 14.46875 13.214844 C 12.382812 14.03125 11.316406 16.296875 11.316406 16.296875 L 9.304688 15.242188 C 9.980469 13.984375 11.320312 11.988281 13.671875 11.054688 Z M 22.996094 18.738281 C 24.144531 18.667969 27.011719 18.648438 30.027344 20.359375 C 33.417969 22.285156 34.882812 25.207031 35.335938 26.222656 L 37.429688 25.292969 C 36.867188 24.058594 35.160156 20.734375 31.289062 18.484375 C 28.007812 16.574219 24.878906 16.429688 23.488281 16.449219 C 23.324219 17.210938 23.160156 17.972656 22.996094 18.738281 Z M 22.765625 9.246094 C 20.84375 9.242188 19.160156 7.652344 19.160156 5.648438 C 19.15625 3.644531 20.839844 2.046875 22.777344 2.046875 C 24.613281 2.046875 26.183594 3.484375 26.367188 5.265625 C 26.578125 7.324219 24.878906 9.25 22.765625 9.246094 Z M 24.09375 5.507812 C 24.023438 4.855469 23.453125 4.320312 22.777344 4.320312 C 22.0625 4.320312 21.449219 4.914062 21.449219 5.648438 C 21.445312 6.386719 22.0625 6.984375 22.777344 6.980469 C 23.558594 6.976562 24.171875 6.261719 24.09375 5.507812 Z M 24.09375 5.507812 " fill-opacity="1" fill-rule="nonzero"/></g></svg>