<svg xmlns="http://www.w3.org/2000/svg" xmlns:xlink="http://www.w3.org/1999/xlink" width="224" zoomAndPan="magnify" viewBox="0 0 168 31.5" height="42" preserveAspectRatio="xMidYMid meet" version="1.0"><defs><filter x="0%" y="0%" width="100%" height="100%" id="a52932936d"><feColorMatrix values="0 0 0 0 1 0 0 0 0 1 0 0 0 0 1 0 0 0 1 0" color-interpolation-filters="sRGB"/></filter><g/><clipPath id="939995aa21"><path d="M 3.976562 3.101562 L 33.375 3.101562 L 33.375 27.597656 L 3.976562 27.597656 Z M 3.976562 3.101562 " clip-rule="nonzero"/></clipPath><mask id="8c15e72388"><g filter="url(#a52932936d)"><rect x="-16.8" width="201.6" fill="#000000" y="-3.15" height="37.8" fill-opacity="0.81"/></g></mask><clipPath id="ba6272486c"><path d="M 1 0.554688 L 5 0.554688 L 5 4 L 1 4 Z M 1 0.554688 " clip-rule="nonzero"/></clipPath><clipPath id="40c47a4fe8"><path d="M 7 0.554688 L 12 0.554688 L 12 4 L 7 4 Z M 7 0.554688 " clip-rule="nonzero"/></clipPath><clipPath id="d969468e7a"><path d="M 14 0.554688 L 18 0.554688 L 18 4 L 14 4 Z M 14 0.554688 " clip-rule="nonzero"/></clipPath><clipPath id="861e2e9ca4"><path d="M 17 0.554688 L 21 0.554688 L 21 4 L 17 4 Z M 17 0.554688 " clip-rule="nonzero"/></clipPath><clipPath id="c508082a96"><rect x="0" width="25" y="0" height="6"/></clipPath></defs><g clip-path="url(#939995aa21)"><path fill="#0097b2" d="M 11.449219 11.382812 C 13.167969 10.699219 14.953125 10.839844 16.238281 10.941406 C 18.386719 11.113281 20.417969 11.742188 22.308594 11.070312 C 22.769531 10.90625 23.078125 10.71875 23.25 10.601562 C 24.175781 9.972656 24.585938 9.109375 24.957031 8.3125 C 25.191406 7.808594 25.484375 7.046875 25.644531 6.058594 L 27.691406 6.5 C 27.640625 6.832031 26.882812 11.558594 23.027344 13.085938 C 21.777344 13.582031 20.59375 13.582031 19.761719 13.488281 C 19.660156 14.519531 18.925781 20.921875 13.289062 24.953125 C 9.472656 27.683594 5.488281 27.84375 3.996094 27.824219 L 3.996094 25.753906 C 6.539062 25.773438 10.324219 25.21875 13.789062 21.773438 C 17.257812 18.332031 17.683594 13.257812 17.683594 13.257812 C 15.523438 12.976562 14.097656 12.617188 12.179688 13.367188 C 10.261719 14.117188 9.28125 16.199219 9.28125 16.199219 L 7.433594 15.226562 C 8.054688 14.074219 9.285156 12.238281 11.449219 11.382812 Z M 20.019531 18.441406 C 21.074219 18.378906 23.710938 18.359375 26.480469 19.933594 C 29.597656 21.707031 30.941406 24.390625 31.359375 25.320312 L 33.285156 24.46875 C 32.769531 23.335938 31.199219 20.28125 27.640625 18.210938 C 24.625 16.453125 21.75 16.320312 20.46875 16.339844 C 20.320312 17.039062 20.167969 17.742188 20.019531 18.441406 Z M 19.804688 9.71875 C 18.039062 9.714844 16.492188 8.253906 16.492188 6.414062 C 16.488281 4.570312 18.035156 3.101562 19.816406 3.101562 C 21.503906 3.101562 22.949219 4.421875 23.117188 6.058594 C 23.3125 7.953125 21.746094 9.71875 19.804688 9.71875 Z M 21.023438 6.28125 C 20.964844 5.683594 20.441406 5.191406 19.816406 5.191406 C 19.160156 5.1875 18.597656 5.734375 18.59375 6.410156 C 18.59375 7.089844 19.160156 7.636719 19.816406 7.636719 C 20.535156 7.632812 21.097656 6.976562 21.023438 6.28125 Z M 21.023438 6.28125 " fill-opacity="1" fill-rule="nonzero"/><path fill="#0097b2" d="M 11.449219 11.382812 C 13.167969 10.699219 14.953125 10.839844 16.238281 10.941406 C 18.386719 11.113281 20.417969 11.742188 22.308594 11.070312 C 22.769531 10.90625 23.078125 10.71875 23.25 10.601562 C 24.175781 9.972656 24.585938 9.109375 24.957031 8.3125 C 25.191406 7.808594 25.484375 7.046875 25.644531 6.058594 L 27.691406 6.5 C 27.640625 6.832031 26.882812 11.558594 23.027344 13.085938 C 21.777344 13.582031 20.59375 13.582031 19.761719 13.488281 C 19.660156 14.519531 18.925781 20.921875 13.289062 24.953125 C 9.472656 27.683594 5.488281 27.84375 3.996094 27.824219 L 3.996094 25.753906 C 6.539062 25.773438 10.324219 25.21875 13.789062 21.773438 C 17.257812 18.332031 17.683594 13.257812 17.683594 13.257812 C 15.523438 12.976562 14.097656 12.617188 12.179688 13.367188 C 10.261719 14.117188 9.28125 16.199219 9.28125 16.199219 L 7.433594 15.226562 C 8.054688 14.074219 9.285156 12.238281 11.449219 11.382812 Z M 20.019531 18.441406 C 21.074219 18.378906 23.710938 18.359375 26.480469 19.933594 C 29.597656 21.707031 30.941406 24.390625 31.359375 25.320312 L 33.285156 24.46875 C 32.769531 23.335938 31.199219 20.28125 27.640625 18.210938 C 24.625 16.453125 21.75 16.320312 20.46875 16.339844 C 20.320312 17.039062 20.167969 17.742188 20.019531 18.441406 Z M 19.804688 9.71875 C 18.039062 9.714844 16.492188 8.253906 16.492188 6.414062 C 16.488281 4.570312 18.035156 3.101562 19.816406 3.101562 C 21.503906 3.101562 22.949219 4.421875 23.117188 6.058594 C 23.3125 7.953125 21.746094 9.71875 19.804688 9.71875 Z M 21.023438 6.28125 C 20.964844 5.683594 20.441406 5.191406 19.816406 5.191406 C 19.160156 5.1875 18.597656 5.734375 18.59375 6.410156 C 18.59375 7.089844 19.160156 7.636719 19.816406 7.636719 C 20.535156 7.632812 21.097656 6.976562 21.023438 6.28125 Z M 21.023438 6.28125 " fill-opacity="1" fill-rule="nonzero"/></g><g mask="url(#8c15e72388)"><g transform="matrix(1, 0, 0, 1, 39, 20)"><g clip-path="url(#c508082a96)"><g clip-path="url(#ba6272486c)"><g fill="#000000" fill-opacity="1"><g transform="translate(1.022178, 3.812519)"><g><path d="M 1.46875 0.078125 C 1.195312 0.078125 0.960938 0.03125 0.765625 -0.0625 C 0.578125 -0.164062 0.453125 -0.296875 0.390625 -0.453125 L 0.28125 0 L 0.015625 0 L 0.484375 -3.015625 L 0.796875 -3.015625 L 0.578125 -1.625 C 0.691406 -1.78125 0.859375 -1.90625 1.078125 -2 C 1.296875 -2.101562 1.53125 -2.15625 1.78125 -2.15625 C 2.039062 -2.15625 2.265625 -2.113281 2.453125 -2.03125 C 2.640625 -1.945312 2.78125 -1.832031 2.875 -1.6875 C 2.976562 -1.550781 3.03125 -1.390625 3.03125 -1.203125 C 3.03125 -1.003906 2.988281 -0.828125 2.90625 -0.671875 C 2.820312 -0.515625 2.707031 -0.378906 2.5625 -0.265625 C 2.414062 -0.148438 2.25 -0.0625 2.0625 0 C 1.875 0.0507812 1.675781 0.078125 1.46875 0.078125 Z M 1.4375 -0.1875 C 1.6875 -0.1875 1.90625 -0.226562 2.09375 -0.3125 C 2.28125 -0.40625 2.429688 -0.523438 2.546875 -0.671875 C 2.660156 -0.816406 2.71875 -0.976562 2.71875 -1.15625 C 2.71875 -1.375 2.628906 -1.546875 2.453125 -1.671875 C 2.273438 -1.804688 2.035156 -1.875 1.734375 -1.875 C 1.566406 -1.875 1.40625 -1.847656 1.25 -1.796875 C 1.101562 -1.753906 0.96875 -1.6875 0.84375 -1.59375 C 0.726562 -1.507812 0.632812 -1.40625 0.5625 -1.28125 C 0.5 -1.164062 0.46875 -1.035156 0.46875 -0.890625 C 0.46875 -0.679688 0.550781 -0.507812 0.71875 -0.375 C 0.894531 -0.25 1.132812 -0.1875 1.4375 -0.1875 Z M 1.4375 -0.1875 "/></g></g></g></g><g fill="#000000" fill-opacity="1"><g transform="translate(4.171493, 3.812519)"><g><path d="M 0.984375 0.9375 C 0.765625 0.9375 0.5625 0.910156 0.375 0.859375 C 0.195312 0.816406 0.046875 0.753906 -0.078125 0.671875 C -0.210938 0.597656 -0.3125 0.519531 -0.375 0.4375 L -0.15625 0.21875 C -0.09375 0.289062 -0.00390625 0.359375 0.109375 0.421875 C 0.222656 0.492188 0.351562 0.550781 0.5 0.59375 C 0.65625 0.632812 0.816406 0.65625 0.984375 0.65625 C 1.210938 0.65625 1.414062 0.617188 1.59375 0.546875 C 1.769531 0.484375 1.910156 0.382812 2.015625 0.25 C 2.128906 0.125 2.203125 -0.0195312 2.234375 -0.1875 L 2.28125 -0.375 L 2.265625 -0.375 C 2.148438 -0.207031 1.992188 -0.078125 1.796875 0.015625 C 1.597656 0.109375 1.390625 0.15625 1.171875 0.15625 C 0.929688 0.15625 0.726562 0.109375 0.5625 0.015625 C 0.394531 -0.078125 0.273438 -0.207031 0.203125 -0.375 C 0.128906 -0.550781 0.113281 -0.75 0.15625 -0.96875 L 0.328125 -2.0625 L 0.640625 -2.0625 L 0.46875 -0.984375 C 0.425781 -0.722656 0.472656 -0.515625 0.609375 -0.359375 C 0.742188 -0.203125 0.941406 -0.125 1.203125 -0.125 C 1.410156 -0.125 1.597656 -0.164062 1.765625 -0.25 C 1.929688 -0.332031 2.066406 -0.445312 2.171875 -0.59375 C 2.285156 -0.738281 2.359375 -0.910156 2.390625 -1.109375 L 2.546875 -2.0625 L 2.859375 -2.0625 L 2.546875 -0.15625 C 2.515625 0.0703125 2.425781 0.265625 2.28125 0.421875 C 2.144531 0.585938 1.960938 0.710938 1.734375 0.796875 C 1.515625 0.890625 1.265625 0.9375 0.984375 0.9375 Z M 0.984375 0.9375 "/></g></g></g><g fill="#000000" fill-opacity="1"><g transform="translate(7.037863, 3.812519)"><g><path d="M 0.21875 0.046875 C 0.144531 0.046875 0.0859375 0.03125 0.046875 0 C 0.015625 -0.0390625 0 -0.09375 0 -0.15625 C 0 -0.226562 0.0195312 -0.285156 0.0625 -0.328125 C 0.113281 -0.378906 0.175781 -0.40625 0.25 -0.40625 C 0.3125 -0.40625 0.363281 -0.382812 0.40625 -0.34375 C 0.445312 -0.3125 0.46875 -0.265625 0.46875 -0.203125 C 0.46875 -0.128906 0.441406 -0.0664062 0.390625 -0.015625 C 0.335938 0.0234375 0.28125 0.046875 0.21875 0.046875 Z M 0.21875 0.046875 "/></g></g></g><g clip-path="url(#40c47a4fe8)"><g fill="#000000" fill-opacity="1"><g transform="translate(7.771882, 3.812519)"><g><path d="M 0.046875 0 L 0.5 -2.890625 L 2.421875 -2.890625 C 2.671875 -2.890625 2.867188 -2.828125 3.015625 -2.703125 C 3.160156 -2.578125 3.234375 -2.410156 3.234375 -2.203125 C 3.234375 -2.023438 3.179688 -1.875 3.078125 -1.75 C 2.972656 -1.632812 2.835938 -1.546875 2.671875 -1.484375 C 2.804688 -1.441406 2.914062 -1.367188 3 -1.265625 C 3.082031 -1.160156 3.125 -1.035156 3.125 -0.890625 C 3.125 -0.710938 3.078125 -0.554688 2.984375 -0.421875 C 2.890625 -0.285156 2.753906 -0.179688 2.578125 -0.109375 C 2.410156 -0.0351562 2.21875 0 2 0 Z M 0.65625 -1.640625 L 2.203125 -1.640625 C 2.328125 -1.640625 2.441406 -1.660156 2.546875 -1.703125 C 2.660156 -1.753906 2.75 -1.820312 2.8125 -1.90625 C 2.875 -1.988281 2.90625 -2.085938 2.90625 -2.203125 C 2.90625 -2.316406 2.863281 -2.410156 2.78125 -2.484375 C 2.695312 -2.554688 2.5625 -2.59375 2.375 -2.59375 L 0.796875 -2.59375 Z M 0.4375 -0.296875 L 1.984375 -0.296875 C 2.234375 -0.296875 2.429688 -0.351562 2.578125 -0.46875 C 2.722656 -0.582031 2.796875 -0.722656 2.796875 -0.890625 C 2.796875 -1.035156 2.738281 -1.144531 2.625 -1.21875 C 2.507812 -1.300781 2.351562 -1.34375 2.15625 -1.34375 L 0.609375 -1.34375 Z M 0.4375 -0.296875 "/></g></g></g></g><g fill="#000000" fill-opacity="1"><g transform="translate(11.019616, 3.812519)"><g><path d="M 1.4375 0.078125 C 1.175781 0.078125 0.945312 0.0351562 0.75 -0.046875 C 0.550781 -0.128906 0.394531 -0.242188 0.28125 -0.390625 C 0.164062 -0.546875 0.109375 -0.71875 0.109375 -0.90625 C 0.109375 -1.09375 0.148438 -1.257812 0.234375 -1.40625 C 0.316406 -1.5625 0.429688 -1.691406 0.578125 -1.796875 C 0.722656 -1.910156 0.882812 -2 1.0625 -2.0625 C 1.25 -2.125 1.441406 -2.15625 1.640625 -2.15625 C 1.878906 -2.15625 2.085938 -2.113281 2.265625 -2.03125 C 2.453125 -1.945312 2.59375 -1.832031 2.6875 -1.6875 C 2.789062 -1.539062 2.84375 -1.375 2.84375 -1.1875 C 2.84375 -1.070312 2.828125 -0.972656 2.796875 -0.890625 L 0.453125 -0.890625 C 0.453125 -0.753906 0.492188 -0.632812 0.578125 -0.53125 C 0.671875 -0.425781 0.796875 -0.347656 0.953125 -0.296875 C 1.109375 -0.242188 1.28125 -0.21875 1.46875 -0.21875 C 1.632812 -0.21875 1.789062 -0.234375 1.9375 -0.265625 C 2.09375 -0.304688 2.234375 -0.359375 2.359375 -0.421875 C 2.492188 -0.492188 2.601562 -0.566406 2.6875 -0.640625 L 2.859375 -0.421875 C 2.753906 -0.328125 2.625 -0.238281 2.46875 -0.15625 C 2.320312 -0.0820312 2.160156 -0.0234375 1.984375 0.015625 C 1.804688 0.0546875 1.625 0.078125 1.4375 0.078125 Z M 0.5 -1.15625 L 2.53125 -1.15625 C 2.539062 -1.3125 2.503906 -1.441406 2.421875 -1.546875 C 2.347656 -1.648438 2.238281 -1.726562 2.09375 -1.78125 C 1.957031 -1.84375 1.804688 -1.875 1.640625 -1.875 C 1.453125 -1.875 1.273438 -1.84375 1.109375 -1.78125 C 0.953125 -1.726562 0.816406 -1.644531 0.703125 -1.53125 C 0.597656 -1.425781 0.53125 -1.300781 0.5 -1.15625 Z M 0.5 -1.15625 "/></g></g></g><g clip-path="url(#d969468e7a)"><g fill="#000000" fill-opacity="1"><g transform="translate(14.095119, 3.812519)"><g><path d="M 1.359375 0.078125 C 1.109375 0.078125 0.890625 0.0390625 0.703125 -0.03125 C 0.515625 -0.113281 0.367188 -0.222656 0.265625 -0.359375 C 0.160156 -0.503906 0.109375 -0.675781 0.109375 -0.875 C 0.109375 -1.0625 0.148438 -1.234375 0.234375 -1.390625 C 0.316406 -1.554688 0.429688 -1.691406 0.578125 -1.796875 C 0.722656 -1.910156 0.882812 -2 1.0625 -2.0625 C 1.25 -2.125 1.445312 -2.15625 1.65625 -2.15625 C 1.925781 -2.15625 2.15625 -2.101562 2.34375 -2 C 2.539062 -1.894531 2.671875 -1.765625 2.734375 -1.609375 L 2.96875 -3.015625 L 3.28125 -3.015625 L 2.796875 0 L 2.53125 0 L 2.578125 -0.453125 C 2.492188 -0.335938 2.390625 -0.238281 2.265625 -0.15625 C 2.140625 -0.0820312 2 -0.0234375 1.84375 0.015625 C 1.6875 0.0546875 1.523438 0.078125 1.359375 0.078125 Z M 1.390625 -0.203125 C 1.566406 -0.203125 1.726562 -0.222656 1.875 -0.265625 C 2.03125 -0.304688 2.164062 -0.367188 2.28125 -0.453125 C 2.40625 -0.546875 2.5 -0.648438 2.5625 -0.765625 C 2.632812 -0.890625 2.671875 -1.023438 2.671875 -1.171875 C 2.671875 -1.378906 2.582031 -1.546875 2.40625 -1.671875 C 2.226562 -1.804688 1.988281 -1.875 1.6875 -1.875 C 1.457031 -1.875 1.25 -1.832031 1.0625 -1.75 C 0.875 -1.675781 0.71875 -1.566406 0.59375 -1.421875 C 0.476562 -1.273438 0.421875 -1.101562 0.421875 -0.90625 C 0.421875 -0.6875 0.503906 -0.515625 0.671875 -0.390625 C 0.847656 -0.265625 1.085938 -0.203125 1.390625 -0.203125 Z M 1.390625 -0.203125 "/></g></g></g></g><g clip-path="url(#861e2e9ca4)"><g fill="#000000" fill-opacity="1"><g transform="translate(17.236232, 3.812519)"><g><path d="M 1.359375 0.078125 C 1.109375 0.078125 0.890625 0.0390625 0.703125 -0.03125 C 0.515625 -0.113281 0.367188 -0.222656 0.265625 -0.359375 C 0.160156 -0.503906 0.109375 -0.675781 0.109375 -0.875 C 0.109375 -1.0625 0.148438 -1.234375 0.234375 -1.390625 C 0.316406 -1.554688 0.429688 -1.691406 0.578125 -1.796875 C 0.722656 -1.910156 0.882812 -2 1.0625 -2.0625 C 1.25 -2.125 1.445312 -2.15625 1.65625 -2.15625 C 1.925781 -2.15625 2.15625 -2.101562 2.34375 -2 C 2.539062 -1.894531 2.671875 -1.765625 2.734375 -1.609375 L 2.96875 -3.015625 L 3.28125 -3.015625 L 2.796875 0 L 2.53125 0 L 2.578125 -0.453125 C 2.492188 -0.335938 2.390625 -0.238281 2.265625 -0.15625 C 2.140625 -0.0820312 2 -0.0234375 1.84375 0.015625 C 1.6875 0.0546875 1.523438 0.078125 1.359375 0.078125 Z M 1.390625 -0.203125 C 1.566406 -0.203125 1.726562 -0.222656 1.875 -0.265625 C 2.03125 -0.304688 2.164062 -0.367188 2.28125 -0.453125 C 2.40625 -0.546875 2.5 -0.648438 2.5625 -0.765625 C 2.632812 -0.890625 2.671875 -1.023438 2.671875 -1.171875 C 2.671875 -1.378906 2.582031 -1.546875 2.40625 -1.671875 C 2.226562 -1.804688 1.988281 -1.875 1.6875 -1.875 C 1.457031 -1.875 1.25 -1.832031 1.0625 -1.75 C 0.875 -1.675781 0.71875 -1.566406 0.59375 -1.421875 C 0.476562 -1.273438 0.421875 -1.101562 0.421875 -0.90625 C 0.421875 -0.6875 0.503906 -0.515625 0.671875 -0.390625 C 0.847656 -0.265625 1.085938 -0.203125 1.390625 -0.203125 Z M 1.390625 -0.203125 "/></g></g></g></g><g fill="#000000" fill-opacity="1"><g transform="translate(20.377345, 3.812519)"><g><path d="M 1.4375 0.078125 C 1.175781 0.078125 0.945312 0.0351562 0.75 -0.046875 C 0.550781 -0.128906 0.394531 -0.242188 0.28125 -0.390625 C 0.164062 -0.546875 0.109375 -0.71875 0.109375 -0.90625 C 0.109375 -1.09375 0.148438 -1.257812 0.234375 -1.40625 C 0.316406 -1.5625 0.429688 -1.691406 0.578125 -1.796875 C 0.722656 -1.910156 0.882812 -2 1.0625 -2.0625 C 1.25 -2.125 1.441406 -2.15625 1.640625 -2.15625 C 1.878906 -2.15625 2.085938 -2.113281 2.265625 -2.03125 C 2.453125 -1.945312 2.59375 -1.832031 2.6875 -1.6875 C 2.789062 -1.539062 2.84375 -1.375 2.84375 -1.1875 C 2.84375 -1.070312 2.828125 -0.972656 2.796875 -0.890625 L 0.453125 -0.890625 C 0.453125 -0.753906 0.492188 -0.632812 0.578125 -0.53125 C 0.671875 -0.425781 0.796875 -0.347656 0.953125 -0.296875 C 1.109375 -0.242188 1.28125 -0.21875 1.46875 -0.21875 C 1.632812 -0.21875 1.789062 -0.234375 1.9375 -0.265625 C 2.09375 -0.304688 2.234375 -0.359375 2.359375 -0.421875 C 2.492188 -0.492188 2.601562 -0.566406 2.6875 -0.640625 L 2.859375 -0.421875 C 2.753906 -0.328125 2.625 -0.238281 2.46875 -0.15625 C 2.320312 -0.0820312 2.160156 -0.0234375 1.984375 0.015625 C 1.804688 0.0546875 1.625 0.078125 1.4375 0.078125 Z M 0.5 -1.15625 L 2.53125 -1.15625 C 2.539062 -1.3125 2.503906 -1.441406 2.421875 -1.546875 C 2.347656 -1.648438 2.238281 -1.726562 2.09375 -1.78125 C 1.957031 -1.84375 1.804688 -1.875 1.640625 -1.875 C 1.453125 -1.875 1.273438 -1.84375 1.109375 -1.78125 C 0.953125 -1.726562 0.816406 -1.644531 0.703125 -1.53125 C 0.597656 -1.425781 0.53125 -1.300781 0.5 -1.15625 Z M 0.5 -1.15625 "/></g></g></g><g fill="#000000" fill-opacity="1"><g transform="translate(23.452848, 3.812519)"><g><path d="M 0.21875 0.046875 C 0.144531 0.046875 0.0859375 0.03125 0.046875 0 C 0.015625 -0.0390625 0 -0.09375 0 -0.15625 C 0 -0.226562 0.0195312 -0.285156 0.0625 -0.328125 C 0.113281 -0.378906 0.175781 -0.40625 0.25 -0.40625 C 0.3125 -0.40625 0.363281 -0.382812 0.40625 -0.34375 C 0.445312 -0.3125 0.46875 -0.265625 0.46875 -0.203125 C 0.46875 -0.128906 0.441406 -0.0664062 0.390625 -0.015625 C 0.335938 0.0234375 0.28125 0.046875 0.21875 0.046875 Z M 0.21875 0.046875 "/></g></g></g></g></g></g><g fill="#000000" fill-opacity="1"><g transform="translate(34.559019, 18.58523)"><g><path d="M 0.921875 -9.28125 C 1.203125 -9.300781 1.476562 -9.300781 1.75 -9.28125 C 2.019531 -9.257812 2.296875 -9.253906 2.578125 -9.265625 C 2.859375 -9.273438 3.140625 -9.273438 3.421875 -9.265625 C 3.703125 -9.253906 3.984375 -9.253906 4.265625 -9.265625 C 4.484375 -9.285156 4.78125 -9.296875 5.15625 -9.296875 C 5.539062 -9.304688 5.941406 -9.3125 6.359375 -9.3125 C 6.773438 -9.3125 7.15625 -9.304688 7.5 -9.296875 C 7.851562 -9.285156 8.117188 -9.273438 8.296875 -9.265625 C 8.421875 -9.265625 8.535156 -9.25 8.640625 -9.21875 C 8.753906 -9.195312 8.867188 -9.160156 8.984375 -9.109375 C 9.109375 -9.066406 9.222656 -9.019531 9.328125 -8.96875 C 9.441406 -8.914062 9.539062 -8.847656 9.625 -8.765625 C 10.019531 -8.460938 10.269531 -8.085938 10.375 -7.640625 C 10.394531 -7.515625 10.421875 -7.390625 10.453125 -7.265625 C 10.484375 -7.140625 10.503906 -7.015625 10.515625 -6.890625 C 10.523438 -6.660156 10.503906 -6.425781 10.453125 -6.1875 C 10.378906 -5.84375 10.234375 -5.566406 10.015625 -5.359375 C 9.804688 -5.148438 9.539062 -4.984375 9.21875 -4.859375 C 9.132812 -4.828125 9.050781 -4.800781 8.96875 -4.78125 C 8.894531 -4.757812 8.816406 -4.734375 8.734375 -4.703125 C 8.835938 -4.703125 8.9375 -4.691406 9.03125 -4.671875 C 9.132812 -4.648438 9.238281 -4.628906 9.34375 -4.609375 C 9.644531 -4.554688 9.925781 -4.46875 10.1875 -4.34375 C 10.3125 -4.289062 10.414062 -4.210938 10.5 -4.109375 C 10.59375 -4.003906 10.679688 -3.898438 10.765625 -3.796875 C 10.929688 -3.585938 11.039062 -3.363281 11.09375 -3.125 C 11.15625 -2.882812 11.191406 -2.640625 11.203125 -2.390625 C 11.203125 -2.140625 11.171875 -1.898438 11.109375 -1.671875 C 11.046875 -1.441406 10.957031 -1.21875 10.84375 -1 C 10.769531 -0.84375 10.671875 -0.707031 10.546875 -0.59375 C 10.421875 -0.488281 10.285156 -0.394531 10.140625 -0.3125 C 9.929688 -0.1875 9.71875 -0.109375 9.5 -0.078125 C 9.289062 -0.0546875 9.070312 -0.0351562 8.84375 -0.015625 C 8.695312 -0.00390625 8.546875 0 8.390625 0 C 8.242188 -0.0078125 8.097656 -0.0078125 7.953125 0 C 7.835938 0.0078125 7.710938 0.0078125 7.578125 0 C 7.453125 -0.0078125 7.328125 -0.015625 7.203125 -0.015625 C 6.878906 -0.00390625 6.554688 -0.00390625 6.234375 -0.015625 C 5.921875 -0.0234375 5.609375 -0.03125 5.296875 -0.03125 C 5.128906 -0.03125 4.960938 -0.0351562 4.796875 -0.046875 C 4.640625 -0.0546875 4.488281 -0.0546875 4.34375 -0.046875 C 4.207031 -0.0351562 4.070312 -0.0234375 3.9375 -0.015625 C 3.8125 -0.015625 3.6875 -0.0078125 3.5625 0 C 3.4375 0 3.304688 0 3.171875 0 C 3.046875 -0.0078125 2.914062 -0.015625 2.78125 -0.015625 C 2.695312 -0.015625 2.609375 -0.0078125 2.515625 0 C 2.421875 0.0078125 2.328125 0.015625 2.234375 0.015625 C 2.140625 0.015625 2.046875 0.0078125 1.953125 0 C 1.859375 0 1.765625 -0.00390625 1.671875 -0.015625 C 1.609375 -0.0234375 1.519531 -0.0195312 1.40625 0 C 1.289062 0.0078125 1.179688 0.0195312 1.078125 0.03125 C 0.984375 0.0390625 0.929688 0.046875 0.921875 0.046875 C 0.910156 0.00390625 0.90625 -0.0976562 0.90625 -0.265625 C 0.914062 -0.441406 0.921875 -0.628906 0.921875 -0.828125 C 0.929688 -1.035156 0.929688 -1.195312 0.921875 -1.3125 C 0.898438 -1.457031 0.890625 -1.601562 0.890625 -1.75 C 0.890625 -1.90625 0.882812 -2.050781 0.875 -2.1875 C 0.863281 -2.375 0.851562 -2.5625 0.84375 -2.75 C 0.84375 -2.9375 0.847656 -3.125 0.859375 -3.3125 C 0.859375 -3.539062 0.851562 -3.769531 0.84375 -4 C 0.832031 -4.238281 0.832031 -4.472656 0.84375 -4.703125 C 0.851562 -4.859375 0.851562 -5.007812 0.84375 -5.15625 C 0.832031 -5.300781 0.820312 -5.441406 0.8125 -5.578125 C 0.8125 -5.773438 0.804688 -5.96875 0.796875 -6.15625 C 0.796875 -6.351562 0.800781 -6.546875 0.8125 -6.734375 C 0.820312 -6.960938 0.828125 -7.191406 0.828125 -7.421875 C 0.828125 -7.648438 0.828125 -7.875 0.828125 -8.09375 C 0.828125 -8.238281 0.828125 -8.378906 0.828125 -8.515625 C 0.835938 -8.660156 0.847656 -8.804688 0.859375 -8.953125 C 0.878906 -9.003906 0.878906 -9.050781 0.859375 -9.09375 C 0.828125 -9.175781 0.847656 -9.238281 0.921875 -9.28125 Z M 5.59375 -8.125 C 5.425781 -8.125 5.253906 -8.117188 5.078125 -8.109375 C 4.910156 -8.109375 4.738281 -8.101562 4.5625 -8.09375 C 4.53125 -8.09375 4.503906 -8.078125 4.484375 -8.046875 C 4.492188 -7.617188 4.503906 -7.179688 4.515625 -6.734375 C 4.523438 -6.285156 4.53125 -5.832031 4.53125 -5.375 C 4.582031 -5.363281 4.625 -5.359375 4.65625 -5.359375 C 4.6875 -5.359375 4.71875 -5.359375 4.75 -5.359375 C 4.925781 -5.359375 5.101562 -5.359375 5.28125 -5.359375 C 5.46875 -5.367188 5.648438 -5.378906 5.828125 -5.390625 C 5.898438 -5.398438 5.976562 -5.40625 6.0625 -5.40625 C 6.144531 -5.414062 6.222656 -5.441406 6.296875 -5.484375 C 6.472656 -5.546875 6.601562 -5.644531 6.6875 -5.78125 C 6.769531 -5.914062 6.832031 -6.070312 6.875 -6.25 C 6.894531 -6.4375 6.898438 -6.617188 6.890625 -6.796875 C 6.890625 -6.972656 6.859375 -7.144531 6.796875 -7.3125 C 6.753906 -7.414062 6.707031 -7.519531 6.65625 -7.625 C 6.613281 -7.726562 6.546875 -7.804688 6.453125 -7.859375 C 6.316406 -7.960938 6.175781 -8.03125 6.03125 -8.0625 C 5.894531 -8.101562 5.75 -8.125 5.59375 -8.125 Z M 5.78125 -4 C 5.644531 -4 5.507812 -4 5.375 -4 C 5.238281 -4 5.101562 -3.988281 4.96875 -3.96875 C 4.894531 -3.96875 4.816406 -3.960938 4.734375 -3.953125 C 4.660156 -3.953125 4.585938 -3.957031 4.515625 -3.96875 L 4.515625 -1.328125 C 4.609375 -1.316406 4.703125 -1.304688 4.796875 -1.296875 C 4.898438 -1.296875 4.992188 -1.300781 5.078125 -1.3125 C 5.378906 -1.3125 5.675781 -1.300781 5.96875 -1.28125 C 6.125 -1.257812 6.273438 -1.265625 6.421875 -1.296875 C 6.566406 -1.335938 6.695312 -1.414062 6.8125 -1.53125 C 6.851562 -1.5625 6.882812 -1.59375 6.90625 -1.625 C 6.9375 -1.65625 6.957031 -1.6875 6.96875 -1.71875 C 7.019531 -1.863281 7.0625 -2.007812 7.09375 -2.15625 C 7.125 -2.300781 7.144531 -2.445312 7.15625 -2.59375 C 7.15625 -2.644531 7.144531 -2.691406 7.125 -2.734375 C 7.113281 -2.785156 7.109375 -2.832031 7.109375 -2.875 C 7.066406 -3.207031 6.941406 -3.488281 6.734375 -3.71875 C 6.609375 -3.851562 6.460938 -3.929688 6.296875 -3.953125 C 6.128906 -3.984375 5.957031 -4 5.78125 -4 Z M 5.78125 -4 "/></g></g></g><g fill="#000000" fill-opacity="1"><g transform="translate(46.356024, 18.58523)"><g><path d="M 6.640625 -7.03125 C 6.691406 -6.882812 6.71875 -6.753906 6.71875 -6.640625 C 6.71875 -6.523438 6.71875 -6.40625 6.71875 -6.28125 C 6.738281 -6.039062 6.738281 -5.796875 6.71875 -5.546875 C 6.71875 -5.429688 6.722656 -5.3125 6.734375 -5.1875 C 6.753906 -5.070312 6.742188 -4.960938 6.703125 -4.859375 C 6.628906 -4.796875 6.554688 -4.796875 6.484375 -4.859375 C 6.296875 -4.992188 6.070312 -5.078125 5.8125 -5.109375 C 5.507812 -5.128906 5.234375 -5.117188 4.984375 -5.078125 C 4.734375 -5.046875 4.476562 -4.914062 4.21875 -4.6875 C 4.1875 -4.644531 4.144531 -4.609375 4.09375 -4.578125 C 4.050781 -4.546875 4.019531 -4.503906 4 -4.453125 C 3.988281 -3.890625 3.988281 -3.347656 4 -2.828125 C 4.007812 -2.316406 4.007812 -1.773438 4 -1.203125 C 3.988281 -1.097656 3.984375 -0.988281 3.984375 -0.875 C 3.992188 -0.769531 4 -0.664062 4 -0.5625 L 4 -0.34375 C 4 -0.21875 3.972656 -0.132812 3.921875 -0.09375 C 3.878906 -0.0625 3.796875 -0.046875 3.671875 -0.046875 C 3.429688 -0.0351562 3.191406 -0.03125 2.953125 -0.03125 C 2.710938 -0.0390625 2.472656 -0.0351562 2.234375 -0.015625 C 2.066406 -0.00390625 1.894531 0 1.71875 0 C 1.550781 0.0078125 1.378906 0.0195312 1.203125 0.03125 C 1.171875 0.0390625 1.128906 0.0390625 1.078125 0.03125 C 1.035156 0.03125 0.988281 0.00390625 0.9375 -0.046875 C 0.957031 -1.160156 0.953125 -2.285156 0.921875 -3.421875 C 0.890625 -4.566406 0.847656 -5.71875 0.796875 -6.875 C 0.921875 -6.882812 1.109375 -6.894531 1.359375 -6.90625 C 1.617188 -6.914062 1.890625 -6.921875 2.171875 -6.921875 C 2.453125 -6.929688 2.6875 -6.929688 2.875 -6.921875 C 3.0625 -6.921875 3.15625 -6.910156 3.15625 -6.890625 C 3.289062 -6.773438 3.394531 -6.625 3.46875 -6.4375 C 3.550781 -6.257812 3.648438 -6.09375 3.765625 -5.9375 C 4.203125 -6.351562 4.632812 -6.65625 5.0625 -6.84375 C 5.5 -7.03125 6.023438 -7.09375 6.640625 -7.03125 Z M 6.640625 -7.03125 "/></g></g></g><g fill="#000000" fill-opacity="1"><g transform="translate(53.614693, 18.58523)"><g><path d="M 4.171875 -7.09375 C 4.484375 -7.132812 4.796875 -7.15625 5.109375 -7.15625 C 5.429688 -7.15625 5.753906 -7.128906 6.078125 -7.078125 C 6.273438 -7.035156 6.472656 -6.976562 6.671875 -6.90625 C 6.878906 -6.84375 7.078125 -6.769531 7.265625 -6.6875 C 7.609375 -6.539062 7.90625 -6.347656 8.15625 -6.109375 C 8.414062 -5.878906 8.640625 -5.613281 8.828125 -5.3125 C 8.972656 -5.082031 9.082031 -4.84375 9.15625 -4.59375 C 9.226562 -4.351562 9.296875 -4.101562 9.359375 -3.84375 C 9.410156 -3.582031 9.425781 -3.316406 9.40625 -3.046875 C 9.382812 -2.785156 9.34375 -2.523438 9.28125 -2.265625 C 9.195312 -1.898438 9.039062 -1.570312 8.8125 -1.28125 C 8.738281 -1.1875 8.664062 -1.09375 8.59375 -1 C 8.53125 -0.90625 8.457031 -0.820312 8.375 -0.75 C 7.988281 -0.394531 7.566406 -0.148438 7.109375 -0.015625 C 6.648438 0.117188 6.171875 0.195312 5.671875 0.21875 C 5.472656 0.21875 5.269531 0.222656 5.0625 0.234375 C 4.851562 0.242188 4.644531 0.238281 4.4375 0.21875 C 4.207031 0.207031 3.976562 0.1875 3.75 0.15625 C 3.519531 0.125 3.296875 0.0625 3.078125 -0.03125 C 3.066406 -0.03125 3.054688 -0.03125 3.046875 -0.03125 C 3.035156 -0.0390625 3.03125 -0.046875 3.03125 -0.046875 C 2.625 -0.140625 2.269531 -0.300781 1.96875 -0.53125 C 1.664062 -0.757812 1.398438 -1.035156 1.171875 -1.359375 C 0.859375 -1.785156 0.675781 -2.265625 0.625 -2.796875 C 0.59375 -3.078125 0.585938 -3.359375 0.609375 -3.640625 C 0.628906 -3.921875 0.675781 -4.195312 0.75 -4.46875 C 0.925781 -5.050781 1.203125 -5.53125 1.578125 -5.90625 C 1.953125 -6.289062 2.421875 -6.582031 2.984375 -6.78125 C 3.179688 -6.851562 3.378906 -6.914062 3.578125 -6.96875 C 3.773438 -7.03125 3.972656 -7.070312 4.171875 -7.09375 Z M 5.125 -5.6875 C 4.914062 -5.707031 4.722656 -5.660156 4.546875 -5.546875 C 4.367188 -5.429688 4.242188 -5.269531 4.171875 -5.0625 C 4.078125 -4.789062 3.992188 -4.515625 3.921875 -4.234375 C 3.847656 -3.960938 3.816406 -3.679688 3.828125 -3.390625 C 3.847656 -3.160156 3.867188 -2.925781 3.890625 -2.6875 C 3.910156 -2.457031 3.96875 -2.226562 4.0625 -2 C 4.082031 -1.925781 4.117188 -1.851562 4.171875 -1.78125 C 4.222656 -1.707031 4.273438 -1.640625 4.328125 -1.578125 C 4.503906 -1.359375 4.710938 -1.226562 4.953125 -1.1875 C 5.203125 -1.15625 5.429688 -1.242188 5.640625 -1.453125 C 5.722656 -1.535156 5.789062 -1.628906 5.84375 -1.734375 C 5.90625 -1.835938 5.957031 -1.945312 6 -2.0625 C 6.070312 -2.289062 6.117188 -2.519531 6.140625 -2.75 C 6.160156 -2.988281 6.171875 -3.226562 6.171875 -3.46875 L 6.171875 -4.015625 C 6.160156 -4.242188 6.128906 -4.476562 6.078125 -4.71875 C 6.035156 -4.957031 5.925781 -5.164062 5.75 -5.34375 C 5.664062 -5.4375 5.570312 -5.515625 5.46875 -5.578125 C 5.363281 -5.640625 5.25 -5.675781 5.125 -5.6875 Z M 5.125 -5.6875 "/></g></g></g><g fill="#000000" fill-opacity="1"><g transform="translate(63.620253, 18.58523)"><g><path d="M 7.0625 -9.3125 C 7.300781 -9.3125 7.539062 -9.296875 7.78125 -9.265625 C 7.945312 -9.265625 8.101562 -9.226562 8.25 -9.15625 C 8.394531 -9.09375 8.535156 -9.03125 8.671875 -8.96875 C 9.085938 -8.78125 9.441406 -8.535156 9.734375 -8.234375 C 10.035156 -7.929688 10.234375 -7.546875 10.328125 -7.078125 C 10.398438 -6.722656 10.429688 -6.367188 10.421875 -6.015625 C 10.410156 -5.660156 10.328125 -5.3125 10.171875 -4.96875 C 9.859375 -4.25 9.328125 -3.769531 8.578125 -3.53125 C 8.453125 -3.476562 8.304688 -3.429688 8.140625 -3.390625 C 8.398438 -3.109375 8.648438 -2.828125 8.890625 -2.546875 C 9.140625 -2.273438 9.382812 -2 9.625 -1.71875 C 9.875 -1.445312 10.125 -1.179688 10.375 -0.921875 C 10.632812 -0.660156 10.878906 -0.394531 11.109375 -0.125 C 11.054688 -0.0078125 10.972656 0.046875 10.859375 0.046875 C 10.554688 0.0546875 10.25 0.0625 9.9375 0.0625 C 9.625 0.0625 9.3125 0.0507812 9 0.03125 C 8.75 -0.0078125 8.492188 -0.0234375 8.234375 -0.015625 C 7.972656 -0.00390625 7.710938 -0.0078125 7.453125 -0.03125 C 7.390625 -0.0390625 7.332031 -0.0390625 7.28125 -0.03125 C 7.238281 -0.03125 7.195312 -0.03125 7.15625 -0.03125 C 6.664062 -0.539062 6.203125 -1.0625 5.765625 -1.59375 C 5.328125 -2.132812 4.875 -2.664062 4.40625 -3.1875 C 4.363281 -2.664062 4.359375 -2.140625 4.390625 -1.609375 C 4.421875 -1.085938 4.4375 -0.5625 4.4375 -0.03125 L 0.8125 -0.03125 C 0.800781 -0.414062 0.800781 -0.796875 0.8125 -1.171875 C 0.820312 -1.546875 0.832031 -1.921875 0.84375 -2.296875 L 0.84375 -6.859375 C 0.832031 -7.234375 0.828125 -7.609375 0.828125 -7.984375 C 0.835938 -8.367188 0.84375 -8.738281 0.84375 -9.09375 C 0.894531 -9.15625 0.941406 -9.191406 0.984375 -9.203125 C 1.023438 -9.222656 1.070312 -9.234375 1.125 -9.234375 C 1.375 -9.253906 1.617188 -9.253906 1.859375 -9.234375 C 2.109375 -9.222656 2.351562 -9.21875 2.59375 -9.21875 C 2.832031 -9.21875 3.070312 -9.222656 3.3125 -9.234375 C 3.550781 -9.242188 3.789062 -9.242188 4.03125 -9.234375 C 4.53125 -9.210938 5.03125 -9.222656 5.53125 -9.265625 C 6.039062 -9.304688 6.550781 -9.320312 7.0625 -9.3125 Z M 4.921875 -7.8125 C 4.847656 -7.820312 4.769531 -7.828125 4.6875 -7.828125 C 4.601562 -7.835938 4.519531 -7.820312 4.4375 -7.78125 C 4.394531 -7.257812 4.378906 -6.742188 4.390625 -6.234375 C 4.410156 -5.734375 4.425781 -5.222656 4.4375 -4.703125 C 4.632812 -4.671875 4.816406 -4.660156 4.984375 -4.671875 C 5.160156 -4.679688 5.332031 -4.679688 5.5 -4.671875 C 5.675781 -4.648438 5.84375 -4.675781 6 -4.75 C 6.28125 -4.851562 6.5 -4.992188 6.65625 -5.171875 C 6.8125 -5.359375 6.890625 -5.613281 6.890625 -5.9375 C 6.890625 -6.039062 6.882812 -6.140625 6.875 -6.234375 C 6.863281 -6.328125 6.859375 -6.414062 6.859375 -6.5 C 6.878906 -6.65625 6.859375 -6.800781 6.796875 -6.9375 C 6.734375 -7.070312 6.664062 -7.195312 6.59375 -7.3125 C 6.46875 -7.507812 6.273438 -7.644531 6.015625 -7.71875 C 5.835938 -7.78125 5.65625 -7.8125 5.46875 -7.8125 C 5.289062 -7.8125 5.109375 -7.8125 4.921875 -7.8125 Z M 4.921875 -7.8125 "/></g></g></g><g fill="#000000" fill-opacity="1"><g transform="translate(75.085508, 18.58523)"><g><path d="M 5.015625 -7.15625 C 5.566406 -7.101562 6.039062 -6.972656 6.4375 -6.765625 C 6.832031 -6.566406 7.222656 -6.273438 7.609375 -5.890625 C 7.691406 -5.804688 7.753906 -5.71875 7.796875 -5.625 C 7.847656 -5.53125 7.898438 -5.429688 7.953125 -5.328125 C 8.148438 -4.972656 8.269531 -4.617188 8.3125 -4.265625 C 8.363281 -3.910156 8.378906 -3.523438 8.359375 -3.109375 C 8.359375 -3.054688 8.347656 -3 8.328125 -2.9375 C 8.316406 -2.894531 8.28125 -2.875 8.21875 -2.875 C 8.15625 -2.882812 8.101562 -2.890625 8.0625 -2.890625 C 7.820312 -2.890625 7.613281 -2.882812 7.4375 -2.875 C 7.257812 -2.863281 7.078125 -2.859375 6.890625 -2.859375 C 6.710938 -2.859375 6.507812 -2.859375 6.28125 -2.859375 C 5.945312 -2.878906 5.617188 -2.882812 5.296875 -2.875 C 4.984375 -2.863281 4.664062 -2.867188 4.34375 -2.890625 C 4.28125 -2.890625 4.21875 -2.882812 4.15625 -2.875 C 4.09375 -2.863281 4.03125 -2.851562 3.96875 -2.84375 C 3.925781 -2.5625 3.972656 -2.285156 4.109375 -2.015625 C 4.253906 -1.753906 4.453125 -1.5625 4.703125 -1.4375 C 4.898438 -1.332031 5.109375 -1.265625 5.328125 -1.234375 C 5.546875 -1.210938 5.765625 -1.21875 5.984375 -1.25 C 6.265625 -1.269531 6.484375 -1.328125 6.640625 -1.421875 C 6.804688 -1.515625 7.003906 -1.640625 7.234375 -1.796875 C 7.296875 -1.835938 7.359375 -1.890625 7.421875 -1.953125 C 7.484375 -2.023438 7.546875 -2.082031 7.609375 -2.125 C 7.648438 -2.144531 7.703125 -2.101562 7.765625 -2 C 7.828125 -1.90625 7.898438 -1.773438 7.984375 -1.609375 C 8.078125 -1.453125 8.160156 -1.289062 8.234375 -1.125 C 8.097656 -0.988281 7.953125 -0.847656 7.796875 -0.703125 C 7.640625 -0.566406 7.484375 -0.457031 7.328125 -0.375 C 7.015625 -0.207031 6.734375 -0.0820312 6.484375 0 C 6.234375 0.0703125 5.929688 0.117188 5.578125 0.140625 C 5.367188 0.171875 5.15625 0.1875 4.9375 0.1875 C 4.71875 0.195312 4.492188 0.179688 4.265625 0.140625 C 4.054688 0.109375 3.867188 0.0820312 3.703125 0.0625 C 3.546875 0.0507812 3.359375 0.015625 3.140625 -0.046875 C 2.878906 -0.128906 2.644531 -0.226562 2.4375 -0.34375 C 2.238281 -0.457031 2.023438 -0.597656 1.796875 -0.765625 C 1.578125 -0.941406 1.378906 -1.140625 1.203125 -1.359375 C 1.023438 -1.585938 0.890625 -1.84375 0.796875 -2.125 C 0.703125 -2.40625 0.640625 -2.691406 0.609375 -2.984375 C 0.585938 -3.273438 0.597656 -3.566406 0.640625 -3.859375 C 0.703125 -4.222656 0.800781 -4.570312 0.9375 -4.90625 C 1.070312 -5.238281 1.257812 -5.554688 1.5 -5.859375 C 1.632812 -6.023438 1.78125 -6.175781 1.9375 -6.3125 C 2.09375 -6.445312 2.269531 -6.554688 2.46875 -6.640625 C 2.632812 -6.722656 2.773438 -6.789062 2.890625 -6.84375 C 3.015625 -6.90625 3.1875 -6.960938 3.40625 -7.015625 C 3.6875 -7.085938 3.957031 -7.132812 4.21875 -7.15625 C 4.476562 -7.175781 4.742188 -7.175781 5.015625 -7.15625 Z M 5.1875 -5.546875 C 5.050781 -5.671875 4.890625 -5.71875 4.703125 -5.6875 C 4.515625 -5.664062 4.367188 -5.570312 4.265625 -5.40625 C 4.128906 -5.207031 4.039062 -4.992188 4 -4.765625 C 3.957031 -4.546875 3.925781 -4.316406 3.90625 -4.078125 C 4.164062 -4.054688 4.414062 -4.054688 4.65625 -4.078125 C 4.894531 -4.097656 5.140625 -4.097656 5.390625 -4.078125 C 5.453125 -4.316406 5.46875 -4.539062 5.4375 -4.75 C 5.414062 -4.957031 5.375 -5.164062 5.3125 -5.375 C 5.28125 -5.4375 5.238281 -5.492188 5.1875 -5.546875 Z M 5.1875 -5.546875 "/></g></g></g><g fill="#000000" fill-opacity="1"><g transform="translate(84.056012, 18.58523)"><g><path d="M 11.15625 -7.078125 C 11.507812 -7.148438 11.851562 -7.148438 12.1875 -7.078125 C 12.519531 -7.015625 12.835938 -6.867188 13.140625 -6.640625 C 13.316406 -6.503906 13.453125 -6.335938 13.546875 -6.140625 C 13.648438 -5.953125 13.734375 -5.757812 13.796875 -5.5625 C 13.878906 -5.257812 13.929688 -4.957031 13.953125 -4.65625 C 13.972656 -4.363281 13.972656 -4.0625 13.953125 -3.75 C 13.929688 -3.34375 13.921875 -2.929688 13.921875 -2.515625 C 13.921875 -2.097656 13.921875 -1.6875 13.921875 -1.28125 C 13.921875 -1.132812 13.921875 -0.984375 13.921875 -0.828125 C 13.929688 -0.671875 13.941406 -0.519531 13.953125 -0.375 C 13.953125 -0.3125 13.945312 -0.25 13.9375 -0.1875 C 13.9375 -0.132812 13.910156 -0.078125 13.859375 -0.015625 C 13.359375 0.0234375 12.859375 0.0390625 12.359375 0.03125 C 11.859375 0.03125 11.359375 0.0351562 10.859375 0.046875 C 10.796875 0.00390625 10.753906 -0.03125 10.734375 -0.0625 C 10.722656 -0.101562 10.71875 -0.148438 10.71875 -0.203125 C 10.707031 -0.492188 10.703125 -0.78125 10.703125 -1.0625 C 10.703125 -1.351562 10.703125 -1.640625 10.703125 -1.921875 C 10.691406 -2.285156 10.6875 -2.644531 10.6875 -3 C 10.695312 -3.363281 10.703125 -3.722656 10.703125 -4.078125 C 10.703125 -4.203125 10.703125 -4.332031 10.703125 -4.46875 C 10.703125 -4.613281 10.695312 -4.75 10.6875 -4.875 C 10.675781 -5.0625 10.609375 -5.210938 10.484375 -5.328125 C 10.359375 -5.441406 10.21875 -5.5 10.0625 -5.5 C 9.945312 -5.488281 9.851562 -5.472656 9.78125 -5.453125 C 9.71875 -5.429688 9.640625 -5.382812 9.546875 -5.3125 C 9.441406 -5.226562 9.34375 -5.160156 9.25 -5.109375 C 9.164062 -5.066406 9.078125 -4.984375 8.984375 -4.859375 C 8.960938 -4.578125 8.941406 -4.304688 8.921875 -4.046875 C 8.898438 -3.785156 8.894531 -3.53125 8.90625 -3.28125 C 8.914062 -2.851562 8.921875 -2.425781 8.921875 -2 C 8.921875 -1.570312 8.921875 -1.140625 8.921875 -0.703125 C 8.921875 -0.640625 8.921875 -0.578125 8.921875 -0.515625 C 8.929688 -0.453125 8.941406 -0.382812 8.953125 -0.3125 C 8.972656 -0.1875 8.953125 -0.0859375 8.890625 -0.015625 C 8.378906 0.0234375 7.863281 0.03125 7.34375 0 C 6.820312 -0.03125 6.316406 -0.015625 5.828125 0.046875 C 5.773438 -0.00390625 5.742188 -0.0507812 5.734375 -0.09375 C 5.734375 -0.144531 5.734375 -0.191406 5.734375 -0.234375 C 5.742188 -0.578125 5.75 -0.914062 5.75 -1.25 C 5.75 -1.59375 5.75 -1.929688 5.75 -2.265625 C 5.789062 -2.765625 5.800781 -3.207031 5.78125 -3.59375 C 5.757812 -3.976562 5.75 -4.378906 5.75 -4.796875 C 5.75 -5.140625 5.648438 -5.351562 5.453125 -5.4375 C 5.253906 -5.53125 5.023438 -5.535156 4.765625 -5.453125 C 4.640625 -5.421875 4.539062 -5.382812 4.46875 -5.34375 C 4.394531 -5.300781 4.3125 -5.238281 4.21875 -5.15625 C 4.175781 -5.125 4.128906 -5.082031 4.078125 -5.03125 C 4.023438 -4.988281 3.992188 -4.9375 3.984375 -4.875 C 3.929688 -4.0625 3.921875 -3.253906 3.953125 -2.453125 C 3.992188 -1.648438 3.992188 -0.84375 3.953125 -0.03125 C 3.441406 -0.0195312 2.941406 -0.00390625 2.453125 0.015625 C 1.960938 0.0351562 1.46875 0.046875 0.96875 0.046875 C 0.9375 0.0351562 0.90625 0.0195312 0.875 0 C 0.851562 -0.0195312 0.835938 -0.0351562 0.828125 -0.046875 C 0.816406 -0.335938 0.804688 -0.625 0.796875 -0.90625 C 0.796875 -1.195312 0.804688 -1.484375 0.828125 -1.765625 C 0.835938 -2.046875 0.84375 -2.328125 0.84375 -2.609375 C 0.84375 -2.898438 0.84375 -3.191406 0.84375 -3.484375 C 0.84375 -3.765625 0.835938 -4.046875 0.828125 -4.328125 C 0.828125 -4.617188 0.832031 -4.898438 0.84375 -5.171875 C 0.863281 -5.453125 0.863281 -5.734375 0.84375 -6.015625 C 0.820312 -6.304688 0.832031 -6.597656 0.875 -6.890625 C 1.082031 -6.929688 1.28125 -6.941406 1.46875 -6.921875 C 1.65625 -6.898438 1.835938 -6.894531 2.015625 -6.90625 C 2.203125 -6.90625 2.382812 -6.90625 2.5625 -6.90625 C 2.75 -6.914062 2.925781 -6.921875 3.09375 -6.921875 C 3.238281 -6.816406 3.351562 -6.6875 3.4375 -6.53125 C 3.519531 -6.375 3.617188 -6.234375 3.734375 -6.109375 C 3.847656 -6.148438 3.945312 -6.203125 4.03125 -6.265625 C 4.125 -6.335938 4.222656 -6.398438 4.328125 -6.453125 C 4.710938 -6.691406 5.09375 -6.867188 5.46875 -6.984375 C 5.84375 -7.097656 6.253906 -7.128906 6.703125 -7.078125 C 7.003906 -7.054688 7.304688 -7.003906 7.609375 -6.921875 C 7.910156 -6.847656 8.175781 -6.679688 8.40625 -6.421875 C 8.46875 -6.359375 8.519531 -6.285156 8.5625 -6.203125 C 8.613281 -6.128906 8.664062 -6.046875 8.71875 -5.953125 C 8.789062 -5.984375 8.859375 -6.019531 8.921875 -6.0625 C 8.992188 -6.101562 9.0625 -6.144531 9.125 -6.1875 C 9.457031 -6.425781 9.785156 -6.617188 10.109375 -6.765625 C 10.429688 -6.910156 10.78125 -7.015625 11.15625 -7.078125 Z M 11.15625 -7.078125 "/></g></g></g><g fill="#000000" fill-opacity="1"><g transform="translate(98.852033, 18.58523)"><g><path d="M 4.171875 -7.09375 C 4.484375 -7.132812 4.796875 -7.15625 5.109375 -7.15625 C 5.429688 -7.15625 5.753906 -7.128906 6.078125 -7.078125 C 6.273438 -7.035156 6.472656 -6.976562 6.671875 -6.90625 C 6.878906 -6.84375 7.078125 -6.769531 7.265625 -6.6875 C 7.609375 -6.539062 7.90625 -6.347656 8.15625 -6.109375 C 8.414062 -5.878906 8.640625 -5.613281 8.828125 -5.3125 C 8.972656 -5.082031 9.082031 -4.84375 9.15625 -4.59375 C 9.226562 -4.351562 9.296875 -4.101562 9.359375 -3.84375 C 9.410156 -3.582031 9.425781 -3.316406 9.40625 -3.046875 C 9.382812 -2.785156 9.34375 -2.523438 9.28125 -2.265625 C 9.195312 -1.898438 9.039062 -1.570312 8.8125 -1.28125 C 8.738281 -1.1875 8.664062 -1.09375 8.59375 -1 C 8.53125 -0.90625 8.457031 -0.820312 8.375 -0.75 C 7.988281 -0.394531 7.566406 -0.148438 7.109375 -0.015625 C 6.648438 0.117188 6.171875 0.195312 5.671875 0.21875 C 5.472656 0.21875 5.269531 0.222656 5.0625 0.234375 C 4.851562 0.242188 4.644531 0.238281 4.4375 0.21875 C 4.207031 0.207031 3.976562 0.1875 3.75 0.15625 C 3.519531 0.125 3.296875 0.0625 3.078125 -0.03125 C 3.066406 -0.03125 3.054688 -0.03125 3.046875 -0.03125 C 3.035156 -0.0390625 3.03125 -0.046875 3.03125 -0.046875 C 2.625 -0.140625 2.269531 -0.300781 1.96875 -0.53125 C 1.664062 -0.757812 1.398438 -1.035156 1.171875 -1.359375 C 0.859375 -1.785156 0.675781 -2.265625 0.625 -2.796875 C 0.59375 -3.078125 0.585938 -3.359375 0.609375 -3.640625 C 0.628906 -3.921875 0.675781 -4.195312 0.75 -4.46875 C 0.925781 -5.050781 1.203125 -5.53125 1.578125 -5.90625 C 1.953125 -6.289062 2.421875 -6.582031 2.984375 -6.78125 C 3.179688 -6.851562 3.378906 -6.914062 3.578125 -6.96875 C 3.773438 -7.03125 3.972656 -7.070312 4.171875 -7.09375 Z M 5.125 -5.6875 C 4.914062 -5.707031 4.722656 -5.660156 4.546875 -5.546875 C 4.367188 -5.429688 4.242188 -5.269531 4.171875 -5.0625 C 4.078125 -4.789062 3.992188 -4.515625 3.921875 -4.234375 C 3.847656 -3.960938 3.816406 -3.679688 3.828125 -3.390625 C 3.847656 -3.160156 3.867188 -2.925781 3.890625 -2.6875 C 3.910156 -2.457031 3.96875 -2.226562 4.0625 -2 C 4.082031 -1.925781 4.117188 -1.851562 4.171875 -1.78125 C 4.222656 -1.707031 4.273438 -1.640625 4.328125 -1.578125 C 4.503906 -1.359375 4.710938 -1.226562 4.953125 -1.1875 C 5.203125 -1.15625 5.429688 -1.242188 5.640625 -1.453125 C 5.722656 -1.535156 5.789062 -1.628906 5.84375 -1.734375 C 5.90625 -1.835938 5.957031 -1.945312 6 -2.0625 C 6.070312 -2.289062 6.117188 -2.519531 6.140625 -2.75 C 6.160156 -2.988281 6.171875 -3.226562 6.171875 -3.46875 L 6.171875 -4.015625 C 6.160156 -4.242188 6.128906 -4.476562 6.078125 -4.71875 C 6.035156 -4.957031 5.925781 -5.164062 5.75 -5.34375 C 5.664062 -5.4375 5.570312 -5.515625 5.46875 -5.578125 C 5.363281 -5.640625 5.25 -5.675781 5.125 -5.6875 Z M 5.125 -5.6875 "/></g></g></g><g fill="#000000" fill-opacity="1"><g transform="translate(108.857593, 18.58523)"><g><path d="M 8.453125 -7.0625 C 8.523438 -7.050781 8.609375 -7.039062 8.703125 -7.03125 C 8.804688 -7.019531 8.898438 -6.988281 8.984375 -6.9375 L 8.984375 -5.953125 C 8.972656 -5.929688 8.96875 -5.898438 8.96875 -5.859375 C 8.96875 -5.816406 8.957031 -5.78125 8.9375 -5.75 C 8.925781 -5.75 8.90625 -5.75 8.875 -5.75 C 8.84375 -5.75 8.828125 -5.75 8.828125 -5.75 C 8.628906 -5.789062 8.453125 -5.75 8.296875 -5.625 C 8.148438 -5.5 8.050781 -5.363281 8 -5.21875 C 7.851562 -4.863281 7.707031 -4.488281 7.5625 -4.09375 C 7.414062 -3.695312 7.269531 -3.316406 7.125 -2.953125 C 7.007812 -2.648438 6.890625 -2.351562 6.765625 -2.0625 C 6.640625 -1.769531 6.515625 -1.476562 6.390625 -1.1875 C 6.328125 -1.03125 6.265625 -0.878906 6.203125 -0.734375 C 6.148438 -0.585938 6.097656 -0.4375 6.046875 -0.28125 C 6.003906 -0.175781 5.941406 -0.078125 5.859375 0.015625 C 5.722656 0.0351562 5.578125 0.046875 5.421875 0.046875 C 5.273438 0.046875 5.125 0.046875 4.96875 0.046875 C 4.8125 0.046875 4.65625 0.046875 4.5 0.046875 C 4.34375 0.0546875 4.1875 0.0546875 4.03125 0.046875 C 3.945312 0.046875 3.851562 0.046875 3.75 0.046875 C 3.65625 0.046875 3.566406 0.0195312 3.484375 -0.03125 C 3.296875 -0.425781 3.097656 -0.8125 2.890625 -1.1875 C 2.691406 -1.570312 2.5 -1.960938 2.3125 -2.359375 C 2.019531 -2.992188 1.726562 -3.628906 1.4375 -4.265625 C 1.15625 -4.910156 0.851562 -5.539062 0.53125 -6.15625 L 0.34375 -6.546875 C 0.320312 -6.585938 0.300781 -6.640625 0.28125 -6.703125 C 0.257812 -6.773438 0.253906 -6.84375 0.265625 -6.90625 C 0.296875 -6.925781 0.421875 -6.941406 0.640625 -6.953125 C 0.859375 -6.960938 1.125 -6.96875 1.4375 -6.96875 C 1.75 -6.976562 2.0625 -6.984375 2.375 -6.984375 C 2.695312 -6.984375 2.96875 -6.984375 3.1875 -6.984375 C 3.414062 -6.984375 3.546875 -6.976562 3.578125 -6.96875 C 3.941406 -6.257812 4.265625 -5.535156 4.546875 -4.796875 C 4.828125 -4.054688 5.15625 -3.320312 5.53125 -2.59375 L 5.90625 -3.46875 C 6.050781 -3.84375 6.203125 -4.210938 6.359375 -4.578125 C 6.515625 -4.953125 6.664062 -5.320312 6.8125 -5.6875 C 6.863281 -5.8125 6.921875 -5.945312 6.984375 -6.09375 C 7.054688 -6.25 7.132812 -6.382812 7.21875 -6.5 C 7.363281 -6.726562 7.539062 -6.878906 7.75 -6.953125 C 7.96875 -7.035156 8.203125 -7.070312 8.453125 -7.0625 Z M 8.453125 -7.0625 "/></g></g></g><g fill="#000000" fill-opacity="1"><g transform="translate(118.066959, 18.58523)"><g><path d="M 5.40625 -7.125 C 5.820312 -7.113281 6.207031 -7.023438 6.5625 -6.859375 C 6.914062 -6.703125 7.242188 -6.5 7.546875 -6.25 C 7.640625 -6.175781 7.726562 -6.097656 7.8125 -6.015625 C 7.90625 -5.941406 7.984375 -5.851562 8.046875 -5.75 C 8.203125 -5.5625 8.3125 -5.359375 8.375 -5.140625 C 8.445312 -4.921875 8.484375 -4.695312 8.484375 -4.46875 C 8.492188 -4.050781 8.5 -3.632812 8.5 -3.21875 C 8.507812 -2.800781 8.507812 -2.382812 8.5 -1.96875 C 8.488281 -1.6875 8.484375 -1.398438 8.484375 -1.109375 C 8.484375 -0.828125 8.5 -0.550781 8.53125 -0.28125 C 8.539062 -0.238281 8.539062 -0.191406 8.53125 -0.140625 C 8.53125 -0.0976562 8.507812 -0.0507812 8.46875 0 C 8.125 -0.03125 7.773438 -0.0351562 7.421875 -0.015625 C 7.066406 0.00390625 6.71875 0.015625 6.375 0.015625 C 6.25 -0.109375 6.140625 -0.238281 6.046875 -0.375 C 5.960938 -0.519531 5.84375 -0.628906 5.6875 -0.703125 C 5.65625 -0.703125 5.625 -0.691406 5.59375 -0.671875 C 5.570312 -0.648438 5.546875 -0.628906 5.515625 -0.609375 C 5.265625 -0.390625 4.988281 -0.21875 4.6875 -0.09375 C 4.394531 0.0195312 4.082031 0.0976562 3.75 0.140625 C 3.445312 0.179688 3.140625 0.195312 2.828125 0.1875 C 2.515625 0.175781 2.210938 0.113281 1.921875 0 C 1.597656 -0.144531 1.328125 -0.332031 1.109375 -0.5625 C 0.890625 -0.800781 0.738281 -1.097656 0.65625 -1.453125 C 0.507812 -2.109375 0.609375 -2.734375 0.953125 -3.328125 C 1.117188 -3.609375 1.328125 -3.832031 1.578125 -4 C 1.828125 -4.175781 2.109375 -4.304688 2.421875 -4.390625 C 3.054688 -4.566406 3.695312 -4.640625 4.34375 -4.609375 C 4.46875 -4.609375 4.585938 -4.601562 4.703125 -4.59375 C 4.816406 -4.582031 4.929688 -4.582031 5.046875 -4.59375 C 5.085938 -4.601562 5.140625 -4.601562 5.203125 -4.59375 C 5.273438 -4.582031 5.335938 -4.582031 5.390625 -4.59375 C 5.410156 -4.84375 5.359375 -5.050781 5.234375 -5.21875 C 5.117188 -5.382812 4.945312 -5.503906 4.71875 -5.578125 C 4.457031 -5.679688 4.203125 -5.722656 3.953125 -5.703125 C 3.710938 -5.679688 3.460938 -5.632812 3.203125 -5.5625 C 3.023438 -5.507812 2.863281 -5.46875 2.71875 -5.4375 C 2.570312 -5.40625 2.410156 -5.335938 2.234375 -5.234375 C 2.179688 -5.203125 2.109375 -5.160156 2.015625 -5.109375 C 1.921875 -5.066406 1.863281 -5.050781 1.84375 -5.0625 C 1.800781 -5.101562 1.738281 -5.191406 1.65625 -5.328125 C 1.570312 -5.460938 1.484375 -5.617188 1.390625 -5.796875 C 1.304688 -5.972656 1.222656 -6.128906 1.140625 -6.265625 C 1.179688 -6.359375 1.238281 -6.421875 1.3125 -6.453125 C 1.382812 -6.492188 1.453125 -6.523438 1.515625 -6.546875 C 1.867188 -6.691406 2.222656 -6.804688 2.578125 -6.890625 C 2.941406 -6.984375 3.316406 -7.046875 3.703125 -7.078125 C 4.273438 -7.128906 4.84375 -7.144531 5.40625 -7.125 Z M 5.4375 -3.3125 C 5.320312 -3.3125 5.210938 -3.304688 5.109375 -3.296875 C 5.003906 -3.296875 4.898438 -3.289062 4.796875 -3.28125 C 4.410156 -3.1875 4.144531 -3.019531 4 -2.78125 C 3.851562 -2.539062 3.796875 -2.25 3.828125 -1.90625 C 3.859375 -1.738281 3.929688 -1.597656 4.046875 -1.484375 C 4.171875 -1.367188 4.3125 -1.289062 4.46875 -1.25 C 4.632812 -1.21875 4.789062 -1.234375 4.9375 -1.296875 C 5.132812 -1.378906 5.304688 -1.515625 5.453125 -1.703125 C 5.421875 -1.953125 5.410156 -2.210938 5.421875 -2.484375 C 5.429688 -2.753906 5.4375 -3.03125 5.4375 -3.3125 Z M 5.4375 -3.3125 "/></g></g></g><g fill="#000000" fill-opacity="1"><g transform="translate(127.422281, 18.58523)"><g><path d="M 3.9375 -9.390625 C 3.976562 -9.367188 4 -9.34375 4 -9.3125 C 4 -9.28125 4 -9.25 4 -9.21875 C 4 -8.9375 4 -8.65625 4 -8.375 C 4.007812 -8.09375 4.015625 -7.804688 4.015625 -7.515625 C 4.023438 -6.828125 4.023438 -6.148438 4.015625 -5.484375 C 4.003906 -4.828125 4.003906 -4.15625 4.015625 -3.46875 C 4.023438 -3.320312 4.03125 -3.175781 4.03125 -3.03125 C 4.03125 -2.882812 4.035156 -2.738281 4.046875 -2.59375 C 4.054688 -2.4375 4.066406 -2.285156 4.078125 -2.140625 C 4.097656 -1.992188 4.140625 -1.851562 4.203125 -1.71875 C 4.253906 -1.59375 4.363281 -1.503906 4.53125 -1.453125 C 4.75 -1.390625 4.976562 -1.390625 5.21875 -1.453125 C 5.300781 -1.460938 5.367188 -1.472656 5.421875 -1.484375 C 5.484375 -1.503906 5.535156 -1.492188 5.578125 -1.453125 C 5.578125 -1.273438 5.578125 -1.078125 5.578125 -0.859375 C 5.585938 -0.640625 5.585938 -0.4375 5.578125 -0.25 C 5.515625 -0.164062 5.425781 -0.0976562 5.3125 -0.046875 C 5.195312 0.00390625 5.082031 0.0351562 4.96875 0.046875 C 4.65625 0.109375 4.347656 0.148438 4.046875 0.171875 C 3.742188 0.191406 3.4375 0.1875 3.125 0.15625 C 2.894531 0.132812 2.679688 0.09375 2.484375 0.03125 C 2.296875 -0.03125 2.109375 -0.113281 1.921875 -0.21875 C 1.648438 -0.363281 1.429688 -0.550781 1.265625 -0.78125 C 1.097656 -1.019531 0.976562 -1.285156 0.90625 -1.578125 C 0.851562 -1.765625 0.828125 -1.953125 0.828125 -2.140625 C 0.828125 -2.328125 0.828125 -2.507812 0.828125 -2.6875 C 0.828125 -3.019531 0.828125 -3.332031 0.828125 -3.625 C 0.835938 -3.914062 0.835938 -4.21875 0.828125 -4.53125 C 0.796875 -4.957031 0.789062 -5.378906 0.8125 -5.796875 C 0.832031 -6.222656 0.835938 -6.648438 0.828125 -7.078125 C 0.816406 -7.328125 0.804688 -7.578125 0.796875 -7.828125 C 0.796875 -8.085938 0.796875 -8.335938 0.796875 -8.578125 C 0.785156 -8.703125 0.785156 -8.828125 0.796875 -8.953125 C 0.804688 -9.078125 0.816406 -9.191406 0.828125 -9.296875 C 0.890625 -9.367188 0.976562 -9.398438 1.09375 -9.390625 C 1.207031 -9.390625 1.304688 -9.390625 1.390625 -9.390625 C 1.648438 -9.390625 1.90625 -9.382812 2.15625 -9.375 C 2.414062 -9.363281 2.671875 -9.363281 2.921875 -9.375 C 3.097656 -9.382812 3.269531 -9.394531 3.4375 -9.40625 C 3.601562 -9.414062 3.769531 -9.410156 3.9375 -9.390625 Z M 3.9375 -9.390625 "/></g></g></g><g fill="#000000" fill-opacity="1"><g transform="translate(133.088562, 18.58523)"><g><path d="M 1.46875 -2.40625 C 1.800781 -2.582031 2.15625 -2.65625 2.53125 -2.625 C 2.90625 -2.601562 3.234375 -2.476562 3.515625 -2.25 C 3.816406 -2.007812 3.984375 -1.742188 4.015625 -1.453125 C 4.054688 -1.160156 4.003906 -0.890625 3.859375 -0.640625 C 3.710938 -0.398438 3.523438 -0.222656 3.296875 -0.109375 C 2.984375 0.046875 2.664062 0.117188 2.34375 0.109375 C 2.226562 0.109375 2.113281 0.101562 2 0.09375 C 1.882812 0.0820312 1.773438 0.0625 1.671875 0.03125 C 1.273438 -0.101562 0.992188 -0.34375 0.828125 -0.6875 C 0.660156 -1.03125 0.6875 -1.421875 0.90625 -1.859375 C 0.976562 -1.984375 1.0625 -2.085938 1.15625 -2.171875 C 1.25 -2.265625 1.351562 -2.34375 1.46875 -2.40625 Z M 1.46875 -2.40625 "/></g></g></g><g fill="#000000" fill-opacity="1"><g transform="translate(137.772854, 18.58523)"><g><path d="M 0.921875 -9.28125 C 1.203125 -9.300781 1.476562 -9.300781 1.75 -9.28125 C 2.019531 -9.257812 2.296875 -9.253906 2.578125 -9.265625 C 2.859375 -9.273438 3.140625 -9.273438 3.421875 -9.265625 C 3.703125 -9.253906 3.984375 -9.253906 4.265625 -9.265625 C 4.484375 -9.285156 4.78125 -9.296875 5.15625 -9.296875 C 5.539062 -9.304688 5.941406 -9.3125 6.359375 -9.3125 C 6.773438 -9.3125 7.15625 -9.304688 7.5 -9.296875 C 7.851562 -9.285156 8.117188 -9.273438 8.296875 -9.265625 C 8.421875 -9.265625 8.535156 -9.25 8.640625 -9.21875 C 8.753906 -9.195312 8.867188 -9.160156 8.984375 -9.109375 C 9.109375 -9.066406 9.222656 -9.019531 9.328125 -8.96875 C 9.441406 -8.914062 9.539062 -8.847656 9.625 -8.765625 C 10.019531 -8.460938 10.269531 -8.085938 10.375 -7.640625 C 10.394531 -7.515625 10.421875 -7.390625 10.453125 -7.265625 C 10.484375 -7.140625 10.503906 -7.015625 10.515625 -6.890625 C 10.523438 -6.660156 10.503906 -6.425781 10.453125 -6.1875 C 10.378906 -5.84375 10.234375 -5.566406 10.015625 -5.359375 C 9.804688 -5.148438 9.539062 -4.984375 9.21875 -4.859375 C 9.132812 -4.828125 9.050781 -4.800781 8.96875 -4.78125 C 8.894531 -4.757812 8.816406 -4.734375 8.734375 -4.703125 C 8.835938 -4.703125 8.9375 -4.691406 9.03125 -4.671875 C 9.132812 -4.648438 9.238281 -4.628906 9.34375 -4.609375 C 9.644531 -4.554688 9.925781 -4.46875 10.1875 -4.34375 C 10.3125 -4.289062 10.414062 -4.210938 10.5 -4.109375 C 10.59375 -4.003906 10.679688 -3.898438 10.765625 -3.796875 C 10.929688 -3.585938 11.039062 -3.363281 11.09375 -3.125 C 11.15625 -2.882812 11.191406 -2.640625 11.203125 -2.390625 C 11.203125 -2.140625 11.171875 -1.898438 11.109375 -1.671875 C 11.046875 -1.441406 10.957031 -1.21875 10.84375 -1 C 10.769531 -0.84375 10.671875 -0.707031 10.546875 -0.59375 C 10.421875 -0.488281 10.285156 -0.394531 10.140625 -0.3125 C 9.929688 -0.1875 9.71875 -0.109375 9.5 -0.078125 C 9.289062 -0.0546875 9.070312 -0.0351562 8.84375 -0.015625 C 8.695312 -0.00390625 8.546875 0 8.390625 0 C 8.242188 -0.0078125 8.097656 -0.0078125 7.953125 0 C 7.835938 0.0078125 7.710938 0.0078125 7.578125 0 C 7.453125 -0.0078125 7.328125 -0.015625 7.203125 -0.015625 C 6.878906 -0.00390625 6.554688 -0.00390625 6.234375 -0.015625 C 5.921875 -0.0234375 5.609375 -0.03125 5.296875 -0.03125 C 5.128906 -0.03125 4.960938 -0.0351562 4.796875 -0.046875 C 4.640625 -0.0546875 4.488281 -0.0546875 4.34375 -0.046875 C 4.207031 -0.0351562 4.070312 -0.0234375 3.9375 -0.015625 C 3.8125 -0.015625 3.6875 -0.0078125 3.5625 0 C 3.4375 0 3.304688 0 3.171875 0 C 3.046875 -0.0078125 2.914062 -0.015625 2.78125 -0.015625 C 2.695312 -0.015625 2.609375 -0.0078125 2.515625 0 C 2.421875 0.0078125 2.328125 0.015625 2.234375 0.015625 C 2.140625 0.015625 2.046875 0.0078125 1.953125 0 C 1.859375 0 1.765625 -0.00390625 1.671875 -0.015625 C 1.609375 -0.0234375 1.519531 -0.0195312 1.40625 0 C 1.289062 0.0078125 1.179688 0.0195312 1.078125 0.03125 C 0.984375 0.0390625 0.929688 0.046875 0.921875 0.046875 C 0.910156 0.00390625 0.90625 -0.0976562 0.90625 -0.265625 C 0.914062 -0.441406 0.921875 -0.628906 0.921875 -0.828125 C 0.929688 -1.035156 0.929688 -1.195312 0.921875 -1.3125 C 0.898438 -1.457031 0.890625 -1.601562 0.890625 -1.75 C 0.890625 -1.90625 0.882812 -2.050781 0.875 -2.1875 C 0.863281 -2.375 0.851562 -2.5625 0.84375 -2.75 C 0.84375 -2.9375 0.847656 -3.125 0.859375 -3.3125 C 0.859375 -3.539062 0.851562 -3.769531 0.84375 -4 C 0.832031 -4.238281 0.832031 -4.472656 0.84375 -4.703125 C 0.851562 -4.859375 0.851562 -5.007812 0.84375 -5.15625 C 0.832031 -5.300781 0.820312 -5.441406 0.8125 -5.578125 C 0.8125 -5.773438 0.804688 -5.96875 0.796875 -6.15625 C 0.796875 -6.351562 0.800781 -6.546875 0.8125 -6.734375 C 0.820312 -6.960938 0.828125 -7.191406 0.828125 -7.421875 C 0.828125 -7.648438 0.828125 -7.875 0.828125 -8.09375 C 0.828125 -8.238281 0.828125 -8.378906 0.828125 -8.515625 C 0.835938 -8.660156 0.847656 -8.804688 0.859375 -8.953125 C 0.878906 -9.003906 0.878906 -9.050781 0.859375 -9.09375 C 0.828125 -9.175781 0.847656 -9.238281 0.921875 -9.28125 Z M 5.59375 -8.125 C 5.425781 -8.125 5.253906 -8.117188 5.078125 -8.109375 C 4.910156 -8.109375 4.738281 -8.101562 4.5625 -8.09375 C 4.53125 -8.09375 4.503906 -8.078125 4.484375 -8.046875 C 4.492188 -7.617188 4.503906 -7.179688 4.515625 -6.734375 C 4.523438 -6.285156 4.53125 -5.832031 4.53125 -5.375 C 4.582031 -5.363281 4.625 -5.359375 4.65625 -5.359375 C 4.6875 -5.359375 4.71875 -5.359375 4.75 -5.359375 C 4.925781 -5.359375 5.101562 -5.359375 5.28125 -5.359375 C 5.46875 -5.367188 5.648438 -5.378906 5.828125 -5.390625 C 5.898438 -5.398438 5.976562 -5.40625 6.0625 -5.40625 C 6.144531 -5.414062 6.222656 -5.441406 6.296875 -5.484375 C 6.472656 -5.546875 6.601562 -5.644531 6.6875 -5.78125 C 6.769531 -5.914062 6.832031 -6.070312 6.875 -6.25 C 6.894531 -6.4375 6.898438 -6.617188 6.890625 -6.796875 C 6.890625 -6.972656 6.859375 -7.144531 6.796875 -7.3125 C 6.753906 -7.414062 6.707031 -7.519531 6.65625 -7.625 C 6.613281 -7.726562 6.546875 -7.804688 6.453125 -7.859375 C 6.316406 -7.960938 6.175781 -8.03125 6.03125 -8.0625 C 5.894531 -8.101562 5.75 -8.125 5.59375 -8.125 Z M 5.78125 -4 C 5.644531 -4 5.507812 -4 5.375 -4 C 5.238281 -4 5.101562 -3.988281 4.96875 -3.96875 C 4.894531 -3.96875 4.816406 -3.960938 4.734375 -3.953125 C 4.660156 -3.953125 4.585938 -3.957031 4.515625 -3.96875 L 4.515625 -1.328125 C 4.609375 -1.316406 4.703125 -1.304688 4.796875 -1.296875 C 4.898438 -1.296875 4.992188 -1.300781 5.078125 -1.3125 C 5.378906 -1.3125 5.675781 -1.300781 5.96875 -1.28125 C 6.125 -1.257812 6.273438 -1.265625 6.421875 -1.296875 C 6.566406 -1.335938 6.695312 -1.414062 6.8125 -1.53125 C 6.851562 -1.5625 6.882812 -1.59375 6.90625 -1.625 C 6.9375 -1.65625 6.957031 -1.6875 6.96875 -1.71875 C 7.019531 -1.863281 7.0625 -2.007812 7.09375 -2.15625 C 7.125 -2.300781 7.144531 -2.445312 7.15625 -2.59375 C 7.15625 -2.644531 7.144531 -2.691406 7.125 -2.734375 C 7.113281 -2.785156 7.109375 -2.832031 7.109375 -2.875 C 7.066406 -3.207031 6.941406 -3.488281 6.734375 -3.71875 C 6.609375 -3.851562 6.460938 -3.929688 6.296875 -3.953125 C 6.128906 -3.984375 5.957031 -4 5.78125 -4 Z M 5.78125 -4 "/></g></g></g><g fill="#000000" fill-opacity="1"><g transform="translate(149.569859, 18.58523)"><g><path d="M 6.078125 -9.484375 C 6.410156 -9.453125 6.742188 -9.425781 7.078125 -9.40625 C 7.421875 -9.382812 7.742188 -9.3125 8.046875 -9.1875 C 8.203125 -9.125 8.347656 -9.054688 8.484375 -8.984375 C 8.628906 -8.910156 8.757812 -8.8125 8.875 -8.6875 C 8.945312 -8.625 9.015625 -8.566406 9.078125 -8.515625 C 9.148438 -8.460938 9.210938 -8.398438 9.265625 -8.328125 C 9.335938 -8.265625 9.394531 -8.195312 9.4375 -8.125 C 9.488281 -8.050781 9.53125 -7.972656 9.5625 -7.890625 C 9.675781 -7.691406 9.757812 -7.507812 9.8125 -7.34375 C 9.863281 -7.175781 9.890625 -7 9.890625 -6.8125 C 9.722656 -6.820312 9.519531 -6.820312 9.28125 -6.8125 C 9.039062 -6.8125 8.820312 -6.804688 8.625 -6.796875 C 8.4375 -6.796875 8.34375 -6.800781 8.34375 -6.8125 C 8.289062 -6.988281 8.222656 -7.148438 8.140625 -7.296875 C 8.066406 -7.441406 7.972656 -7.570312 7.859375 -7.6875 C 7.742188 -7.8125 7.613281 -7.898438 7.46875 -7.953125 C 7.320312 -8.003906 7.164062 -8.046875 7 -8.078125 C 6.675781 -8.148438 6.378906 -8.128906 6.109375 -8.015625 C 5.960938 -7.953125 5.816406 -7.878906 5.671875 -7.796875 C 5.535156 -7.710938 5.410156 -7.609375 5.296875 -7.484375 C 5.128906 -7.316406 4.976562 -7.140625 4.84375 -6.953125 C 4.71875 -6.773438 4.617188 -6.570312 4.546875 -6.34375 C 4.503906 -6.195312 4.472656 -6.054688 4.453125 -5.921875 C 4.429688 -5.785156 4.40625 -5.644531 4.375 -5.5 C 4.34375 -5.3125 4.328125 -5.125 4.328125 -4.9375 C 4.335938 -4.75 4.34375 -4.554688 4.34375 -4.359375 C 4.363281 -4.171875 4.382812 -3.976562 4.40625 -3.78125 C 4.425781 -3.59375 4.46875 -3.40625 4.53125 -3.21875 C 4.53125 -3.195312 4.554688 -3.101562 4.609375 -2.9375 C 4.671875 -2.78125 4.753906 -2.609375 4.859375 -2.421875 C 4.921875 -2.304688 4.984375 -2.207031 5.046875 -2.125 C 5.109375 -2.050781 5.171875 -1.972656 5.234375 -1.890625 C 5.304688 -1.804688 5.378906 -1.734375 5.453125 -1.671875 C 5.535156 -1.609375 5.617188 -1.546875 5.703125 -1.484375 C 5.816406 -1.398438 5.9375 -1.34375 6.0625 -1.3125 C 6.1875 -1.289062 6.304688 -1.273438 6.421875 -1.265625 C 6.546875 -1.253906 6.671875 -1.257812 6.796875 -1.28125 C 6.929688 -1.300781 7.054688 -1.332031 7.171875 -1.375 L 7.171875 -3.453125 L 6.234375 -3.453125 C 6.203125 -3.453125 6.179688 -3.476562 6.171875 -3.53125 C 6.171875 -3.59375 6.160156 -3.632812 6.140625 -3.65625 C 6.171875 -3.84375 6.175781 -4.003906 6.15625 -4.140625 C 6.144531 -4.273438 6.148438 -4.441406 6.171875 -4.640625 C 6.265625 -4.660156 6.347656 -4.671875 6.421875 -4.671875 C 6.503906 -4.671875 6.582031 -4.671875 6.65625 -4.671875 C 6.832031 -4.660156 7.015625 -4.65625 7.203125 -4.65625 C 7.390625 -4.664062 7.570312 -4.660156 7.75 -4.640625 C 7.90625 -4.617188 8.066406 -4.625 8.234375 -4.65625 C 8.398438 -4.6875 8.5625 -4.695312 8.71875 -4.6875 C 8.832031 -4.675781 8.941406 -4.671875 9.046875 -4.671875 C 9.148438 -4.679688 9.253906 -4.691406 9.359375 -4.703125 C 9.535156 -4.710938 9.703125 -4.710938 9.859375 -4.703125 C 10.015625 -4.703125 10.175781 -4.707031 10.34375 -4.71875 C 10.375 -4.707031 10.390625 -4.6875 10.390625 -4.65625 C 10.390625 -4.632812 10.390625 -4.613281 10.390625 -4.59375 C 10.390625 -4.34375 10.390625 -4.097656 10.390625 -3.859375 C 10.398438 -3.617188 10.398438 -3.375 10.390625 -3.125 C 10.390625 -2.957031 10.398438 -2.785156 10.421875 -2.609375 C 10.453125 -2.429688 10.460938 -2.253906 10.453125 -2.078125 C 10.441406 -1.835938 10.441406 -1.59375 10.453125 -1.34375 C 10.460938 -1.101562 10.457031 -0.859375 10.4375 -0.609375 C 10.425781 -0.554688 10.421875 -0.503906 10.421875 -0.453125 C 10.429688 -0.398438 10.441406 -0.351562 10.453125 -0.3125 C 10.453125 -0.25 10.453125 -0.171875 10.453125 -0.078125 C 10.453125 0.00390625 10.4375 0.0507812 10.40625 0.0625 C 10.25 0.03125 10.078125 0.0195312 9.890625 0.03125 C 9.710938 0.0507812 9.535156 0.0546875 9.359375 0.046875 C 9.304688 -0.0664062 9.238281 -0.179688 9.15625 -0.296875 C 9.082031 -0.410156 9.007812 -0.523438 8.9375 -0.640625 C 8.863281 -0.617188 8.796875 -0.585938 8.734375 -0.546875 C 8.671875 -0.503906 8.601562 -0.46875 8.53125 -0.4375 C 8.257812 -0.289062 7.984375 -0.171875 7.703125 -0.078125 C 7.421875 0.00390625 7.128906 0.0664062 6.828125 0.109375 C 6.640625 0.140625 6.441406 0.164062 6.234375 0.1875 C 6.023438 0.207031 5.816406 0.195312 5.609375 0.15625 C 5.566406 0.144531 5.519531 0.144531 5.46875 0.15625 C 5.414062 0.175781 5.363281 0.1875 5.3125 0.1875 C 4.832031 0.15625 4.351562 0.0546875 3.875 -0.109375 C 3.78125 -0.140625 3.6875 -0.164062 3.59375 -0.1875 C 3.507812 -0.207031 3.414062 -0.234375 3.3125 -0.265625 C 3.21875 -0.296875 3.125 -0.335938 3.03125 -0.390625 C 2.945312 -0.453125 2.859375 -0.503906 2.765625 -0.546875 C 2.628906 -0.609375 2.507812 -0.6875 2.40625 -0.78125 C 2.300781 -0.875 2.195312 -0.957031 2.09375 -1.03125 C 1.957031 -1.132812 1.84375 -1.242188 1.75 -1.359375 C 1.664062 -1.484375 1.578125 -1.601562 1.484375 -1.71875 C 1.285156 -1.96875 1.125 -2.238281 1 -2.53125 C 0.882812 -2.820312 0.796875 -3.101562 0.734375 -3.375 C 0.703125 -3.519531 0.675781 -3.691406 0.65625 -3.890625 C 0.632812 -4.085938 0.617188 -4.285156 0.609375 -4.484375 C 0.597656 -4.679688 0.597656 -4.84375 0.609375 -4.96875 C 0.628906 -5.144531 0.640625 -5.3125 0.640625 -5.46875 C 0.648438 -5.632812 0.6875 -5.800781 0.75 -5.96875 C 0.789062 -6.09375 0.828125 -6.195312 0.859375 -6.28125 C 0.898438 -6.363281 0.945312 -6.460938 1 -6.578125 C 1.0625 -6.691406 1.140625 -6.859375 1.234375 -7.078125 C 1.273438 -7.148438 1.359375 -7.269531 1.484375 -7.4375 C 1.609375 -7.601562 1.703125 -7.726562 1.765625 -7.8125 C 1.796875 -7.863281 1.835938 -7.910156 1.890625 -7.953125 C 1.941406 -8.003906 1.988281 -8.046875 2.03125 -8.078125 C 2.226562 -8.222656 2.421875 -8.367188 2.609375 -8.515625 C 2.804688 -8.660156 3.019531 -8.78125 3.25 -8.875 C 3.414062 -8.945312 3.582031 -9.015625 3.75 -9.078125 C 3.925781 -9.148438 4.097656 -9.210938 4.265625 -9.265625 C 4.441406 -9.328125 4.613281 -9.367188 4.78125 -9.390625 C 4.957031 -9.421875 5.132812 -9.4375 5.3125 -9.4375 C 5.4375 -9.4375 5.5625 -9.445312 5.6875 -9.46875 C 5.820312 -9.5 5.953125 -9.503906 6.078125 -9.484375 Z M 6.078125 -9.484375 "/></g></g></g></svg>